<mxfile host="app.diagrams.net" modified="2022-08-12T06:40:50.199Z" agent="5.0 (Windows NT 10.0; Win64; x64) AppleWebKit/537.36 (KHTML, like Gecko) Chrome/104.0.0.0 Safari/537.36" etag="F_VpdWEq_q5rbc0wp8QB" version="20.2.3" type="github">
  <diagram id="zfn3NuKyWQ2x2j2dKrCw" name="第 1 页">
    <mxGraphModel dx="1422" dy="762" grid="1" gridSize="10" guides="1" tooltips="1" connect="1" arrows="1" fold="1" page="1" pageScale="1" pageWidth="827" pageHeight="1169" math="0" shadow="0">
      <root>
        <mxCell id="0" />
        <mxCell id="1" parent="0" />
        <mxCell id="f-9odYpLVWEYG3a2OQfo-1" value="" style="swimlane;horizontal=0;startSize=130;" parent="1" vertex="1">
          <mxGeometry x="75" y="90" width="1430" height="610" as="geometry" />
        </mxCell>
        <mxCell id="f-9odYpLVWEYG3a2OQfo-47" value="" style="rounded=0;whiteSpace=wrap;html=1;" parent="f-9odYpLVWEYG3a2OQfo-1" vertex="1">
          <mxGeometry x="145" y="70" width="980" height="230" as="geometry" />
        </mxCell>
        <mxCell id="f-9odYpLVWEYG3a2OQfo-3" value="&lt;h1&gt;全链路监控&lt;/h1&gt;&lt;div&gt;&amp;nbsp; 应用概览&lt;/div&gt;" style="text;html=1;strokeColor=none;fillColor=none;spacing=5;spacingTop=-20;whiteSpace=wrap;overflow=hidden;rounded=0;" parent="f-9odYpLVWEYG3a2OQfo-1" vertex="1">
          <mxGeometry y="200" width="130" height="190" as="geometry" />
        </mxCell>
        <mxCell id="f-9odYpLVWEYG3a2OQfo-5" value="东盟" style="rounded=0;whiteSpace=wrap;html=1;" parent="f-9odYpLVWEYG3a2OQfo-1" vertex="1">
          <mxGeometry x="835" y="20" width="120" height="30" as="geometry" />
        </mxCell>
        <mxCell id="f-9odYpLVWEYG3a2OQfo-6" value="选择站点" style="text;html=1;strokeColor=none;fillColor=none;align=center;verticalAlign=middle;whiteSpace=wrap;rounded=0;" parent="f-9odYpLVWEYG3a2OQfo-1" vertex="1">
          <mxGeometry x="745" y="20" width="60" height="30" as="geometry" />
        </mxCell>
        <mxCell id="f-9odYpLVWEYG3a2OQfo-7" value="选择时间" style="text;html=1;strokeColor=none;fillColor=none;align=center;verticalAlign=middle;whiteSpace=wrap;rounded=0;" parent="f-9odYpLVWEYG3a2OQfo-1" vertex="1">
          <mxGeometry x="975" y="20" width="60" height="30" as="geometry" />
        </mxCell>
        <mxCell id="f-9odYpLVWEYG3a2OQfo-13" value="最近30分钟" style="rounded=0;whiteSpace=wrap;html=1;" parent="f-9odYpLVWEYG3a2OQfo-1" vertex="1">
          <mxGeometry x="1055" y="20" width="120" height="30" as="geometry" />
        </mxCell>
        <mxCell id="f-9odYpLVWEYG3a2OQfo-14" value="bt-app-service" style="rounded=0;whiteSpace=wrap;html=1;" parent="f-9odYpLVWEYG3a2OQfo-1" vertex="1">
          <mxGeometry x="170" y="120" width="170" height="30" as="geometry" />
        </mxCell>
        <mxCell id="f-9odYpLVWEYG3a2OQfo-19" value="&lt;span style=&quot;color: rgb(51, 51, 51); font-family: Arial, sans-serif; font-size: 13px; text-align: start; background-color: rgb(255, 255, 255);&quot;&gt;score&amp;nbsp;&lt;/span&gt;" style="ellipse;whiteSpace=wrap;html=1;aspect=fixed;" parent="f-9odYpLVWEYG3a2OQfo-1" vertex="1">
          <mxGeometry x="370" y="115" width="40" height="40" as="geometry" />
        </mxCell>
        <mxCell id="f-9odYpLVWEYG3a2OQfo-20" value="Apdex" style="rounded=0;whiteSpace=wrap;html=1;" parent="f-9odYpLVWEYG3a2OQfo-1" vertex="1">
          <mxGeometry x="430" y="120" width="130" height="30" as="geometry" />
        </mxCell>
        <mxCell id="f-9odYpLVWEYG3a2OQfo-21" value="响应时间" style="rounded=0;whiteSpace=wrap;html=1;" parent="f-9odYpLVWEYG3a2OQfo-1" vertex="1">
          <mxGeometry x="570" y="120" width="130" height="30" as="geometry" />
        </mxCell>
        <mxCell id="f-9odYpLVWEYG3a2OQfo-22" value="错误率" style="rounded=0;whiteSpace=wrap;html=1;" parent="f-9odYpLVWEYG3a2OQfo-1" vertex="1">
          <mxGeometry x="720" y="120" width="130" height="30" as="geometry" />
        </mxCell>
        <mxCell id="f-9odYpLVWEYG3a2OQfo-34" value="吞吐量" style="rounded=0;whiteSpace=wrap;html=1;" parent="f-9odYpLVWEYG3a2OQfo-1" vertex="1">
          <mxGeometry x="880" y="125" width="130" height="30" as="geometry" />
        </mxCell>
        <mxCell id="f-9odYpLVWEYG3a2OQfo-35" value="bt-app-service" style="rounded=0;whiteSpace=wrap;html=1;" parent="f-9odYpLVWEYG3a2OQfo-1" vertex="1">
          <mxGeometry x="170" y="175" width="170" height="30" as="geometry" />
        </mxCell>
        <mxCell id="f-9odYpLVWEYG3a2OQfo-36" value="&lt;span style=&quot;color: rgb(51, 51, 51); font-family: Arial, sans-serif; font-size: 13px; text-align: start; background-color: rgb(255, 255, 255);&quot;&gt;score&amp;nbsp;&lt;/span&gt;" style="ellipse;whiteSpace=wrap;html=1;aspect=fixed;" parent="f-9odYpLVWEYG3a2OQfo-1" vertex="1">
          <mxGeometry x="370" y="170" width="40" height="40" as="geometry" />
        </mxCell>
        <mxCell id="f-9odYpLVWEYG3a2OQfo-37" value="Apdex" style="rounded=0;whiteSpace=wrap;html=1;" parent="f-9odYpLVWEYG3a2OQfo-1" vertex="1">
          <mxGeometry x="430" y="175" width="130" height="30" as="geometry" />
        </mxCell>
        <mxCell id="f-9odYpLVWEYG3a2OQfo-38" value="响应时间" style="rounded=0;whiteSpace=wrap;html=1;" parent="f-9odYpLVWEYG3a2OQfo-1" vertex="1">
          <mxGeometry x="570" y="175" width="130" height="30" as="geometry" />
        </mxCell>
        <mxCell id="f-9odYpLVWEYG3a2OQfo-39" value="错误率" style="rounded=0;whiteSpace=wrap;html=1;" parent="f-9odYpLVWEYG3a2OQfo-1" vertex="1">
          <mxGeometry x="720" y="175" width="130" height="30" as="geometry" />
        </mxCell>
        <mxCell id="f-9odYpLVWEYG3a2OQfo-40" value="吞吐量" style="rounded=0;whiteSpace=wrap;html=1;" parent="f-9odYpLVWEYG3a2OQfo-1" vertex="1">
          <mxGeometry x="880" y="180" width="130" height="30" as="geometry" />
        </mxCell>
        <mxCell id="f-9odYpLVWEYG3a2OQfo-41" value="bt-app-service" style="rounded=0;whiteSpace=wrap;html=1;" parent="f-9odYpLVWEYG3a2OQfo-1" vertex="1">
          <mxGeometry x="170" y="235" width="170" height="30" as="geometry" />
        </mxCell>
        <mxCell id="f-9odYpLVWEYG3a2OQfo-42" value="&lt;span style=&quot;color: rgb(51, 51, 51); font-family: Arial, sans-serif; font-size: 13px; text-align: start; background-color: rgb(255, 255, 255);&quot;&gt;score&amp;nbsp;&lt;/span&gt;" style="ellipse;whiteSpace=wrap;html=1;aspect=fixed;" parent="f-9odYpLVWEYG3a2OQfo-1" vertex="1">
          <mxGeometry x="370" y="230" width="40" height="40" as="geometry" />
        </mxCell>
        <mxCell id="f-9odYpLVWEYG3a2OQfo-43" value="Apdex" style="rounded=0;whiteSpace=wrap;html=1;" parent="f-9odYpLVWEYG3a2OQfo-1" vertex="1">
          <mxGeometry x="430" y="235" width="130" height="30" as="geometry" />
        </mxCell>
        <mxCell id="f-9odYpLVWEYG3a2OQfo-44" value="响应时间" style="rounded=0;whiteSpace=wrap;html=1;" parent="f-9odYpLVWEYG3a2OQfo-1" vertex="1">
          <mxGeometry x="570" y="235" width="130" height="30" as="geometry" />
        </mxCell>
        <mxCell id="f-9odYpLVWEYG3a2OQfo-45" value="错误率" style="rounded=0;whiteSpace=wrap;html=1;" parent="f-9odYpLVWEYG3a2OQfo-1" vertex="1">
          <mxGeometry x="720" y="235" width="130" height="30" as="geometry" />
        </mxCell>
        <mxCell id="f-9odYpLVWEYG3a2OQfo-46" value="吞吐量" style="rounded=0;whiteSpace=wrap;html=1;" parent="f-9odYpLVWEYG3a2OQfo-1" vertex="1">
          <mxGeometry x="880" y="240" width="130" height="30" as="geometry" />
        </mxCell>
        <mxCell id="f-9odYpLVWEYG3a2OQfo-48" value="" style="rounded=0;whiteSpace=wrap;html=1;" parent="f-9odYpLVWEYG3a2OQfo-1" vertex="1">
          <mxGeometry x="145" y="70" width="975" height="40" as="geometry" />
        </mxCell>
        <mxCell id="f-9odYpLVWEYG3a2OQfo-51" value="" style="shape=image;html=1;verticalAlign=top;verticalLabelPosition=bottom;labelBackgroundColor=#ffffff;imageAspect=0;aspect=fixed;image=https://cdn0.iconfinder.com/data/icons/google-material-design-3-0/48/ic_add_circle_outline_48px-128.png" parent="f-9odYpLVWEYG3a2OQfo-1" vertex="1">
          <mxGeometry x="145" y="72" width="38" height="38" as="geometry" />
        </mxCell>
        <mxCell id="f-9odYpLVWEYG3a2OQfo-52" value="APP 业务分类名" style="rounded=0;whiteSpace=wrap;html=1;" parent="f-9odYpLVWEYG3a2OQfo-1" vertex="1">
          <mxGeometry x="205" y="76" width="120" height="30" as="geometry" />
        </mxCell>
        <mxCell id="f-9odYpLVWEYG3a2OQfo-75" value="" style="rounded=0;whiteSpace=wrap;html=1;" parent="f-9odYpLVWEYG3a2OQfo-1" vertex="1">
          <mxGeometry x="147.5" y="310" width="975" height="40" as="geometry" />
        </mxCell>
        <mxCell id="f-9odYpLVWEYG3a2OQfo-76" value="" style="shape=image;html=1;verticalAlign=top;verticalLabelPosition=bottom;labelBackgroundColor=#ffffff;imageAspect=0;aspect=fixed;image=https://cdn0.iconfinder.com/data/icons/google-material-design-3-0/48/ic_add_circle_outline_48px-128.png" parent="f-9odYpLVWEYG3a2OQfo-1" vertex="1">
          <mxGeometry x="155" y="312" width="38" height="38" as="geometry" />
        </mxCell>
        <mxCell id="f-9odYpLVWEYG3a2OQfo-77" value="APP 业务分类名" style="rounded=0;whiteSpace=wrap;html=1;" parent="f-9odYpLVWEYG3a2OQfo-1" vertex="1">
          <mxGeometry x="195" y="316" width="120" height="30" as="geometry" />
        </mxCell>
        <mxCell id="f-9odYpLVWEYG3a2OQfo-79" value="" style="rounded=0;whiteSpace=wrap;html=1;" parent="f-9odYpLVWEYG3a2OQfo-1" vertex="1">
          <mxGeometry x="147.5" y="360" width="975" height="40" as="geometry" />
        </mxCell>
        <mxCell id="f-9odYpLVWEYG3a2OQfo-80" value="" style="shape=image;html=1;verticalAlign=top;verticalLabelPosition=bottom;labelBackgroundColor=#ffffff;imageAspect=0;aspect=fixed;image=https://cdn0.iconfinder.com/data/icons/google-material-design-3-0/48/ic_add_circle_outline_48px-128.png" parent="f-9odYpLVWEYG3a2OQfo-1" vertex="1">
          <mxGeometry x="155" y="362" width="38" height="38" as="geometry" />
        </mxCell>
        <mxCell id="f-9odYpLVWEYG3a2OQfo-81" value="APP 业务分类名" style="rounded=0;whiteSpace=wrap;html=1;" parent="f-9odYpLVWEYG3a2OQfo-1" vertex="1">
          <mxGeometry x="195" y="366" width="120" height="30" as="geometry" />
        </mxCell>
        <mxCell id="7d7tqYi4WP06SzkIWCzc-2" value="" style="swimlane;horizontal=0;startSize=130;" parent="1" vertex="1">
          <mxGeometry x="1530" y="90" width="1195" height="600" as="geometry" />
        </mxCell>
        <mxCell id="7d7tqYi4WP06SzkIWCzc-3" value="" style="rounded=0;whiteSpace=wrap;html=1;" parent="7d7tqYi4WP06SzkIWCzc-2" vertex="1">
          <mxGeometry x="145" y="70" width="980" height="230" as="geometry" />
        </mxCell>
        <mxCell id="7d7tqYi4WP06SzkIWCzc-4" value="&lt;h1&gt;全链路监控&lt;/h1&gt;&lt;div&gt;&amp;nbsp; 应用概览&lt;/div&gt;" style="text;html=1;strokeColor=none;fillColor=none;spacing=5;spacingTop=-20;whiteSpace=wrap;overflow=hidden;rounded=0;" parent="7d7tqYi4WP06SzkIWCzc-2" vertex="1">
          <mxGeometry y="200" width="130" height="190" as="geometry" />
        </mxCell>
        <mxCell id="7d7tqYi4WP06SzkIWCzc-5" value="东盟" style="rounded=0;whiteSpace=wrap;html=1;" parent="7d7tqYi4WP06SzkIWCzc-2" vertex="1">
          <mxGeometry x="835" y="20" width="120" height="30" as="geometry" />
        </mxCell>
        <mxCell id="7d7tqYi4WP06SzkIWCzc-6" value="选择站点" style="text;html=1;strokeColor=none;fillColor=none;align=center;verticalAlign=middle;whiteSpace=wrap;rounded=0;" parent="7d7tqYi4WP06SzkIWCzc-2" vertex="1">
          <mxGeometry x="745" y="20" width="60" height="30" as="geometry" />
        </mxCell>
        <mxCell id="7d7tqYi4WP06SzkIWCzc-7" value="选择时间" style="text;html=1;strokeColor=none;fillColor=none;align=center;verticalAlign=middle;whiteSpace=wrap;rounded=0;" parent="7d7tqYi4WP06SzkIWCzc-2" vertex="1">
          <mxGeometry x="975" y="20" width="60" height="30" as="geometry" />
        </mxCell>
        <mxCell id="7d7tqYi4WP06SzkIWCzc-8" value="最近30分钟" style="rounded=0;whiteSpace=wrap;html=1;" parent="7d7tqYi4WP06SzkIWCzc-2" vertex="1">
          <mxGeometry x="1055" y="20" width="120" height="30" as="geometry" />
        </mxCell>
        <mxCell id="7d7tqYi4WP06SzkIWCzc-9" value="bt-app-service" style="rounded=0;whiteSpace=wrap;html=1;" parent="7d7tqYi4WP06SzkIWCzc-2" vertex="1">
          <mxGeometry x="170" y="120" width="170" height="30" as="geometry" />
        </mxCell>
        <mxCell id="7d7tqYi4WP06SzkIWCzc-10" value="&lt;span style=&quot;color: rgb(51, 51, 51); font-family: Arial, sans-serif; font-size: 13px; text-align: start; background-color: rgb(255, 255, 255);&quot;&gt;score&amp;nbsp;&lt;/span&gt;" style="ellipse;whiteSpace=wrap;html=1;aspect=fixed;" parent="7d7tqYi4WP06SzkIWCzc-2" vertex="1">
          <mxGeometry x="370" y="115" width="40" height="40" as="geometry" />
        </mxCell>
        <mxCell id="7d7tqYi4WP06SzkIWCzc-11" value="Apdex" style="rounded=0;whiteSpace=wrap;html=1;" parent="7d7tqYi4WP06SzkIWCzc-2" vertex="1">
          <mxGeometry x="430" y="120" width="130" height="30" as="geometry" />
        </mxCell>
        <mxCell id="7d7tqYi4WP06SzkIWCzc-12" value="响应时间" style="rounded=0;whiteSpace=wrap;html=1;" parent="7d7tqYi4WP06SzkIWCzc-2" vertex="1">
          <mxGeometry x="570" y="120" width="130" height="30" as="geometry" />
        </mxCell>
        <mxCell id="7d7tqYi4WP06SzkIWCzc-13" value="错误率" style="rounded=0;whiteSpace=wrap;html=1;" parent="7d7tqYi4WP06SzkIWCzc-2" vertex="1">
          <mxGeometry x="720" y="120" width="130" height="30" as="geometry" />
        </mxCell>
        <mxCell id="7d7tqYi4WP06SzkIWCzc-14" value="吞吐量" style="rounded=0;whiteSpace=wrap;html=1;" parent="7d7tqYi4WP06SzkIWCzc-2" vertex="1">
          <mxGeometry x="880" y="125" width="130" height="30" as="geometry" />
        </mxCell>
        <mxCell id="7d7tqYi4WP06SzkIWCzc-15" value="bt-app-service" style="rounded=0;whiteSpace=wrap;html=1;" parent="7d7tqYi4WP06SzkIWCzc-2" vertex="1">
          <mxGeometry x="170" y="175" width="170" height="30" as="geometry" />
        </mxCell>
        <mxCell id="7d7tqYi4WP06SzkIWCzc-16" value="&lt;span style=&quot;color: rgb(51, 51, 51); font-family: Arial, sans-serif; font-size: 13px; text-align: start; background-color: rgb(255, 255, 255);&quot;&gt;score&amp;nbsp;&lt;/span&gt;" style="ellipse;whiteSpace=wrap;html=1;aspect=fixed;" parent="7d7tqYi4WP06SzkIWCzc-2" vertex="1">
          <mxGeometry x="370" y="170" width="40" height="40" as="geometry" />
        </mxCell>
        <mxCell id="7d7tqYi4WP06SzkIWCzc-17" value="Apdex" style="rounded=0;whiteSpace=wrap;html=1;" parent="7d7tqYi4WP06SzkIWCzc-2" vertex="1">
          <mxGeometry x="430" y="175" width="130" height="30" as="geometry" />
        </mxCell>
        <mxCell id="7d7tqYi4WP06SzkIWCzc-18" value="响应时间" style="rounded=0;whiteSpace=wrap;html=1;" parent="7d7tqYi4WP06SzkIWCzc-2" vertex="1">
          <mxGeometry x="570" y="175" width="130" height="30" as="geometry" />
        </mxCell>
        <mxCell id="7d7tqYi4WP06SzkIWCzc-19" value="错误率" style="rounded=0;whiteSpace=wrap;html=1;" parent="7d7tqYi4WP06SzkIWCzc-2" vertex="1">
          <mxGeometry x="720" y="175" width="130" height="30" as="geometry" />
        </mxCell>
        <mxCell id="7d7tqYi4WP06SzkIWCzc-20" value="吞吐量" style="rounded=0;whiteSpace=wrap;html=1;" parent="7d7tqYi4WP06SzkIWCzc-2" vertex="1">
          <mxGeometry x="880" y="180" width="130" height="30" as="geometry" />
        </mxCell>
        <mxCell id="7d7tqYi4WP06SzkIWCzc-21" value="bt-app-service" style="rounded=0;whiteSpace=wrap;html=1;" parent="7d7tqYi4WP06SzkIWCzc-2" vertex="1">
          <mxGeometry x="170" y="235" width="170" height="30" as="geometry" />
        </mxCell>
        <mxCell id="7d7tqYi4WP06SzkIWCzc-22" value="&lt;span style=&quot;color: rgb(51, 51, 51); font-family: Arial, sans-serif; font-size: 13px; text-align: start; background-color: rgb(255, 255, 255);&quot;&gt;score&amp;nbsp;&lt;/span&gt;" style="ellipse;whiteSpace=wrap;html=1;aspect=fixed;" parent="7d7tqYi4WP06SzkIWCzc-2" vertex="1">
          <mxGeometry x="370" y="230" width="40" height="40" as="geometry" />
        </mxCell>
        <mxCell id="7d7tqYi4WP06SzkIWCzc-23" value="Apdex" style="rounded=0;whiteSpace=wrap;html=1;" parent="7d7tqYi4WP06SzkIWCzc-2" vertex="1">
          <mxGeometry x="430" y="235" width="130" height="30" as="geometry" />
        </mxCell>
        <mxCell id="7d7tqYi4WP06SzkIWCzc-24" value="响应时间" style="rounded=0;whiteSpace=wrap;html=1;" parent="7d7tqYi4WP06SzkIWCzc-2" vertex="1">
          <mxGeometry x="570" y="235" width="130" height="30" as="geometry" />
        </mxCell>
        <mxCell id="7d7tqYi4WP06SzkIWCzc-25" value="错误率" style="rounded=0;whiteSpace=wrap;html=1;" parent="7d7tqYi4WP06SzkIWCzc-2" vertex="1">
          <mxGeometry x="720" y="235" width="130" height="30" as="geometry" />
        </mxCell>
        <mxCell id="7d7tqYi4WP06SzkIWCzc-26" value="吞吐量" style="rounded=0;whiteSpace=wrap;html=1;" parent="7d7tqYi4WP06SzkIWCzc-2" vertex="1">
          <mxGeometry x="880" y="240" width="130" height="30" as="geometry" />
        </mxCell>
        <mxCell id="7d7tqYi4WP06SzkIWCzc-27" value="" style="rounded=0;whiteSpace=wrap;html=1;" parent="7d7tqYi4WP06SzkIWCzc-2" vertex="1">
          <mxGeometry x="145" y="70" width="975" height="40" as="geometry" />
        </mxCell>
        <mxCell id="7d7tqYi4WP06SzkIWCzc-28" value="" style="shape=image;html=1;verticalAlign=top;verticalLabelPosition=bottom;labelBackgroundColor=#ffffff;imageAspect=0;aspect=fixed;image=https://cdn0.iconfinder.com/data/icons/google-material-design-3-0/48/ic_add_circle_outline_48px-128.png" parent="7d7tqYi4WP06SzkIWCzc-2" vertex="1">
          <mxGeometry x="145" y="72" width="38" height="38" as="geometry" />
        </mxCell>
        <mxCell id="7d7tqYi4WP06SzkIWCzc-29" value="APP 业务分类名" style="rounded=0;whiteSpace=wrap;html=1;" parent="7d7tqYi4WP06SzkIWCzc-2" vertex="1">
          <mxGeometry x="205" y="76" width="120" height="30" as="geometry" />
        </mxCell>
        <mxCell id="7d7tqYi4WP06SzkIWCzc-30" value="" style="rounded=0;whiteSpace=wrap;html=1;" parent="7d7tqYi4WP06SzkIWCzc-2" vertex="1">
          <mxGeometry x="147.5" y="310" width="975" height="40" as="geometry" />
        </mxCell>
        <mxCell id="7d7tqYi4WP06SzkIWCzc-31" value="" style="shape=image;html=1;verticalAlign=top;verticalLabelPosition=bottom;labelBackgroundColor=#ffffff;imageAspect=0;aspect=fixed;image=https://cdn0.iconfinder.com/data/icons/google-material-design-3-0/48/ic_add_circle_outline_48px-128.png" parent="7d7tqYi4WP06SzkIWCzc-2" vertex="1">
          <mxGeometry x="155" y="312" width="38" height="38" as="geometry" />
        </mxCell>
        <mxCell id="7d7tqYi4WP06SzkIWCzc-32" value="APP 业务分类名" style="rounded=0;whiteSpace=wrap;html=1;" parent="7d7tqYi4WP06SzkIWCzc-2" vertex="1">
          <mxGeometry x="195" y="316" width="120" height="30" as="geometry" />
        </mxCell>
        <mxCell id="7d7tqYi4WP06SzkIWCzc-33" value="" style="rounded=0;whiteSpace=wrap;html=1;" parent="7d7tqYi4WP06SzkIWCzc-2" vertex="1">
          <mxGeometry x="147.5" y="360" width="975" height="40" as="geometry" />
        </mxCell>
        <mxCell id="7d7tqYi4WP06SzkIWCzc-34" value="" style="shape=image;html=1;verticalAlign=top;verticalLabelPosition=bottom;labelBackgroundColor=#ffffff;imageAspect=0;aspect=fixed;image=https://cdn0.iconfinder.com/data/icons/google-material-design-3-0/48/ic_add_circle_outline_48px-128.png" parent="7d7tqYi4WP06SzkIWCzc-2" vertex="1">
          <mxGeometry x="155" y="362" width="38" height="38" as="geometry" />
        </mxCell>
        <mxCell id="7d7tqYi4WP06SzkIWCzc-35" value="APP 业务分类名" style="rounded=0;whiteSpace=wrap;html=1;" parent="7d7tqYi4WP06SzkIWCzc-2" vertex="1">
          <mxGeometry x="195" y="366" width="120" height="30" as="geometry" />
        </mxCell>
        <mxCell id="7d7tqYi4WP06SzkIWCzc-38" value="" style="rounded=0;whiteSpace=wrap;html=1;fillColor=#f5f5f5;fontColor=#333333;strokeColor=#666666;" parent="7d7tqYi4WP06SzkIWCzc-2" vertex="1">
          <mxGeometry x="340" y="100" width="670" height="397" as="geometry" />
        </mxCell>
        <mxCell id="7d7tqYi4WP06SzkIWCzc-39" value="接口名称 " style="swimlane;fontStyle=0;childLayout=stackLayout;horizontal=1;startSize=30;horizontalStack=0;resizeParent=1;resizeParentMax=0;resizeLast=0;collapsible=1;marginBottom=0;" parent="7d7tqYi4WP06SzkIWCzc-2" vertex="1">
          <mxGeometry x="372.5" y="170" width="157.5" height="90" as="geometry" />
        </mxCell>
        <mxCell id="7d7tqYi4WP06SzkIWCzc-41" value="Item 2" style="text;strokeColor=none;fillColor=none;align=left;verticalAlign=middle;spacingLeft=4;spacingRight=4;overflow=hidden;points=[[0,0.5],[1,0.5]];portConstraint=eastwest;rotatable=0;" parent="7d7tqYi4WP06SzkIWCzc-39" vertex="1">
          <mxGeometry y="30" width="157.5" height="30" as="geometry" />
        </mxCell>
        <mxCell id="7d7tqYi4WP06SzkIWCzc-42" value="Item 3" style="text;strokeColor=none;fillColor=none;align=left;verticalAlign=middle;spacingLeft=4;spacingRight=4;overflow=hidden;points=[[0,0.5],[1,0.5]];portConstraint=eastwest;rotatable=0;" parent="7d7tqYi4WP06SzkIWCzc-39" vertex="1">
          <mxGeometry y="60" width="157.5" height="30" as="geometry" />
        </mxCell>
        <mxCell id="7d7tqYi4WP06SzkIWCzc-44" value="响应时间" style="swimlane;fontStyle=0;childLayout=stackLayout;horizontal=1;startSize=30;horizontalStack=0;resizeParent=1;resizeParentMax=0;resizeLast=0;collapsible=1;marginBottom=0;" parent="7d7tqYi4WP06SzkIWCzc-2" vertex="1">
          <mxGeometry x="530" y="170" width="150" height="90" as="geometry" />
        </mxCell>
        <mxCell id="7d7tqYi4WP06SzkIWCzc-45" value="Item 2" style="text;strokeColor=none;fillColor=none;align=left;verticalAlign=middle;spacingLeft=4;spacingRight=4;overflow=hidden;points=[[0,0.5],[1,0.5]];portConstraint=eastwest;rotatable=0;" parent="7d7tqYi4WP06SzkIWCzc-44" vertex="1">
          <mxGeometry y="30" width="150" height="30" as="geometry" />
        </mxCell>
        <mxCell id="7d7tqYi4WP06SzkIWCzc-46" value="Item 3" style="text;strokeColor=none;fillColor=none;align=left;verticalAlign=middle;spacingLeft=4;spacingRight=4;overflow=hidden;points=[[0,0.5],[1,0.5]];portConstraint=eastwest;rotatable=0;" parent="7d7tqYi4WP06SzkIWCzc-44" vertex="1">
          <mxGeometry y="60" width="150" height="30" as="geometry" />
        </mxCell>
        <mxCell id="7d7tqYi4WP06SzkIWCzc-47" value="错误率" style="swimlane;fontStyle=0;childLayout=stackLayout;horizontal=1;startSize=30;horizontalStack=0;resizeParent=1;resizeParentMax=0;resizeLast=0;collapsible=1;marginBottom=0;" parent="7d7tqYi4WP06SzkIWCzc-2" vertex="1">
          <mxGeometry x="680" y="170" width="150" height="90" as="geometry" />
        </mxCell>
        <mxCell id="7d7tqYi4WP06SzkIWCzc-48" value="Item 2" style="text;strokeColor=none;fillColor=none;align=left;verticalAlign=middle;spacingLeft=4;spacingRight=4;overflow=hidden;points=[[0,0.5],[1,0.5]];portConstraint=eastwest;rotatable=0;" parent="7d7tqYi4WP06SzkIWCzc-47" vertex="1">
          <mxGeometry y="30" width="150" height="30" as="geometry" />
        </mxCell>
        <mxCell id="7d7tqYi4WP06SzkIWCzc-49" value="Item 3" style="text;strokeColor=none;fillColor=none;align=left;verticalAlign=middle;spacingLeft=4;spacingRight=4;overflow=hidden;points=[[0,0.5],[1,0.5]];portConstraint=eastwest;rotatable=0;" parent="7d7tqYi4WP06SzkIWCzc-47" vertex="1">
          <mxGeometry y="60" width="150" height="30" as="geometry" />
        </mxCell>
        <mxCell id="7d7tqYi4WP06SzkIWCzc-50" value="吞吐量" style="swimlane;fontStyle=0;childLayout=stackLayout;horizontal=1;startSize=30;horizontalStack=0;resizeParent=1;resizeParentMax=0;resizeLast=0;collapsible=1;marginBottom=0;" parent="7d7tqYi4WP06SzkIWCzc-2" vertex="1">
          <mxGeometry x="830" y="170" width="150" height="90" as="geometry" />
        </mxCell>
        <mxCell id="7d7tqYi4WP06SzkIWCzc-51" value="Item 2" style="text;strokeColor=none;fillColor=none;align=left;verticalAlign=middle;spacingLeft=4;spacingRight=4;overflow=hidden;points=[[0,0.5],[1,0.5]];portConstraint=eastwest;rotatable=0;" parent="7d7tqYi4WP06SzkIWCzc-50" vertex="1">
          <mxGeometry y="30" width="150" height="30" as="geometry" />
        </mxCell>
        <mxCell id="7d7tqYi4WP06SzkIWCzc-52" value="Item 3" style="text;strokeColor=none;fillColor=none;align=left;verticalAlign=middle;spacingLeft=4;spacingRight=4;overflow=hidden;points=[[0,0.5],[1,0.5]];portConstraint=eastwest;rotatable=0;" parent="7d7tqYi4WP06SzkIWCzc-50" vertex="1">
          <mxGeometry y="60" width="150" height="30" as="geometry" />
        </mxCell>
        <mxCell id="7d7tqYi4WP06SzkIWCzc-54" value="最近30分钟" style="rounded=0;whiteSpace=wrap;html=1;" parent="7d7tqYi4WP06SzkIWCzc-2" vertex="1">
          <mxGeometry x="880" y="110" width="120" height="30" as="geometry" />
        </mxCell>
        <mxCell id="7d7tqYi4WP06SzkIWCzc-57" value="&lt;h1&gt;点击按钮切换排序方式&lt;/h1&gt;" style="text;html=1;strokeColor=none;fillColor=none;spacing=5;spacingTop=-20;whiteSpace=wrap;overflow=hidden;rounded=0;" parent="7d7tqYi4WP06SzkIWCzc-2" vertex="1">
          <mxGeometry x="770" y="290" width="190" height="120" as="geometry" />
        </mxCell>
        <mxCell id="7d7tqYi4WP06SzkIWCzc-58" value="" style="swimlane;horizontal=0;startSize=130;" parent="1" vertex="1">
          <mxGeometry x="80" y="730" width="1450" height="610" as="geometry" />
        </mxCell>
        <mxCell id="7d7tqYi4WP06SzkIWCzc-60" value="&lt;h1&gt;全链路监控&lt;/h1&gt;&lt;div&gt;&amp;nbsp; 事务流&lt;/div&gt;" style="text;html=1;strokeColor=none;fillColor=none;spacing=5;spacingTop=-20;whiteSpace=wrap;overflow=hidden;rounded=0;" parent="7d7tqYi4WP06SzkIWCzc-58" vertex="1">
          <mxGeometry y="200" width="130" height="190" as="geometry" />
        </mxCell>
        <mxCell id="7d7tqYi4WP06SzkIWCzc-189" value="东盟" style="rounded=0;whiteSpace=wrap;html=1;" parent="7d7tqYi4WP06SzkIWCzc-58" vertex="1">
          <mxGeometry x="1080" y="20" width="120" height="30" as="geometry" />
        </mxCell>
        <mxCell id="7d7tqYi4WP06SzkIWCzc-190" value="选择站点" style="text;html=1;strokeColor=none;fillColor=none;align=center;verticalAlign=middle;whiteSpace=wrap;rounded=0;" parent="7d7tqYi4WP06SzkIWCzc-58" vertex="1">
          <mxGeometry x="990" y="20" width="60" height="30" as="geometry" />
        </mxCell>
        <mxCell id="7d7tqYi4WP06SzkIWCzc-191" value="选择时间" style="text;html=1;strokeColor=none;fillColor=none;align=center;verticalAlign=middle;whiteSpace=wrap;rounded=0;" parent="7d7tqYi4WP06SzkIWCzc-58" vertex="1">
          <mxGeometry x="1220" y="20" width="60" height="30" as="geometry" />
        </mxCell>
        <mxCell id="7d7tqYi4WP06SzkIWCzc-192" value="最近30分钟" style="rounded=0;whiteSpace=wrap;html=1;" parent="7d7tqYi4WP06SzkIWCzc-58" vertex="1">
          <mxGeometry x="1300" y="20" width="120" height="30" as="geometry" />
        </mxCell>
        <mxCell id="7d7tqYi4WP06SzkIWCzc-199" value="选择服务" style="rounded=0;whiteSpace=wrap;html=1;" parent="7d7tqYi4WP06SzkIWCzc-58" vertex="1">
          <mxGeometry x="150" y="10" width="170" height="30" as="geometry" />
        </mxCell>
        <mxCell id="7d7tqYi4WP06SzkIWCzc-200" value="排序：&amp;nbsp;&lt;span style=&quot;background-color: initial;&quot;&gt;耗时百分比&amp;nbsp;&amp;nbsp;&lt;/span&gt;&lt;span style=&quot;background-color: initial;&quot;&gt;响应时间&amp;nbsp; Apdex&amp;nbsp;&lt;/span&gt;&lt;span style=&quot;background-color: initial;&quot;&gt;吞吐率&lt;/span&gt;&lt;span style=&quot;background-color: initial;&quot;&gt;&lt;br&gt;&lt;/span&gt;" style="rounded=0;whiteSpace=wrap;html=1;" parent="7d7tqYi4WP06SzkIWCzc-58" vertex="1">
          <mxGeometry x="164" y="100" width="256" height="40" as="geometry" />
        </mxCell>
        <mxCell id="7d7tqYi4WP06SzkIWCzc-201" value="" style="shape=ext;double=1;rounded=0;whiteSpace=wrap;html=1;" parent="7d7tqYi4WP06SzkIWCzc-58" vertex="1">
          <mxGeometry x="160" y="170" width="240" height="420" as="geometry" />
        </mxCell>
        <mxCell id="7d7tqYi4WP06SzkIWCzc-202" value="事务一览" style="text;html=1;strokeColor=none;fillColor=none;align=center;verticalAlign=middle;whiteSpace=wrap;rounded=0;" parent="7d7tqYi4WP06SzkIWCzc-58" vertex="1">
          <mxGeometry x="164" y="180" width="60" height="30" as="geometry" />
        </mxCell>
        <mxCell id="7d7tqYi4WP06SzkIWCzc-203" value="搜索框" style="rounded=0;whiteSpace=wrap;html=1;" parent="7d7tqYi4WP06SzkIWCzc-58" vertex="1">
          <mxGeometry x="230" y="180" width="140" height="30" as="geometry" />
        </mxCell>
        <mxCell id="7d7tqYi4WP06SzkIWCzc-204" value="接口名称：xxxx" style="text;html=1;strokeColor=none;fillColor=none;align=center;verticalAlign=middle;whiteSpace=wrap;rounded=0;" parent="7d7tqYi4WP06SzkIWCzc-58" vertex="1">
          <mxGeometry x="174" y="220" width="106" height="30" as="geometry" />
        </mxCell>
        <mxCell id="7d7tqYi4WP06SzkIWCzc-205" value="耗时: 100%" style="text;html=1;strokeColor=none;fillColor=none;align=center;verticalAlign=middle;whiteSpace=wrap;rounded=0;" parent="7d7tqYi4WP06SzkIWCzc-58" vertex="1">
          <mxGeometry x="280" y="220" width="90" height="30" as="geometry" />
        </mxCell>
        <mxCell id="7d7tqYi4WP06SzkIWCzc-219" value="调用链" style="rounded=0;whiteSpace=wrap;html=1;" parent="7d7tqYi4WP06SzkIWCzc-58" vertex="1">
          <mxGeometry x="430" y="100" width="810" height="40" as="geometry" />
        </mxCell>
        <mxCell id="7d7tqYi4WP06SzkIWCzc-220" value="" style="shape=ext;double=1;rounded=0;whiteSpace=wrap;html=1;" parent="7d7tqYi4WP06SzkIWCzc-58" vertex="1">
          <mxGeometry x="430" y="170" width="840" height="420" as="geometry" />
        </mxCell>
        <mxCell id="7d7tqYi4WP06SzkIWCzc-265" style="edgeStyle=orthogonalEdgeStyle;curved=1;rounded=0;orthogonalLoop=1;jettySize=auto;html=1;" parent="7d7tqYi4WP06SzkIWCzc-58" source="7d7tqYi4WP06SzkIWCzc-221" target="7d7tqYi4WP06SzkIWCzc-238" edge="1">
          <mxGeometry relative="1" as="geometry" />
        </mxCell>
        <mxCell id="7d7tqYi4WP06SzkIWCzc-266" style="edgeStyle=orthogonalEdgeStyle;curved=1;rounded=0;orthogonalLoop=1;jettySize=auto;html=1;" parent="7d7tqYi4WP06SzkIWCzc-58" source="7d7tqYi4WP06SzkIWCzc-221" target="7d7tqYi4WP06SzkIWCzc-239" edge="1">
          <mxGeometry relative="1" as="geometry" />
        </mxCell>
        <mxCell id="7d7tqYi4WP06SzkIWCzc-221" value="接口1" style="rounded=0;whiteSpace=wrap;html=1;" parent="7d7tqYi4WP06SzkIWCzc-58" vertex="1">
          <mxGeometry x="747" y="190" width="140" height="30" as="geometry" />
        </mxCell>
        <mxCell id="7d7tqYi4WP06SzkIWCzc-267" style="edgeStyle=orthogonalEdgeStyle;curved=1;rounded=0;orthogonalLoop=1;jettySize=auto;html=1;" parent="7d7tqYi4WP06SzkIWCzc-58" source="7d7tqYi4WP06SzkIWCzc-238" target="7d7tqYi4WP06SzkIWCzc-240" edge="1">
          <mxGeometry relative="1" as="geometry" />
        </mxCell>
        <mxCell id="7d7tqYi4WP06SzkIWCzc-238" value="接口2&amp;nbsp; 耗时%" style="rounded=0;whiteSpace=wrap;html=1;" parent="7d7tqYi4WP06SzkIWCzc-58" vertex="1">
          <mxGeometry x="650" y="260" width="140" height="30" as="geometry" />
        </mxCell>
        <mxCell id="7d7tqYi4WP06SzkIWCzc-268" style="edgeStyle=orthogonalEdgeStyle;curved=1;rounded=0;orthogonalLoop=1;jettySize=auto;html=1;" parent="7d7tqYi4WP06SzkIWCzc-58" source="7d7tqYi4WP06SzkIWCzc-239" target="7d7tqYi4WP06SzkIWCzc-260" edge="1">
          <mxGeometry relative="1" as="geometry" />
        </mxCell>
        <mxCell id="7d7tqYi4WP06SzkIWCzc-239" value="接口2&amp;nbsp; 耗时%" style="rounded=0;whiteSpace=wrap;html=1;" parent="7d7tqYi4WP06SzkIWCzc-58" vertex="1">
          <mxGeometry x="860" y="260" width="140" height="30" as="geometry" />
        </mxCell>
        <mxCell id="7d7tqYi4WP06SzkIWCzc-303" style="edgeStyle=orthogonalEdgeStyle;curved=1;rounded=0;orthogonalLoop=1;jettySize=auto;html=1;" parent="7d7tqYi4WP06SzkIWCzc-58" source="7d7tqYi4WP06SzkIWCzc-240" target="7d7tqYi4WP06SzkIWCzc-271" edge="1">
          <mxGeometry relative="1" as="geometry" />
        </mxCell>
        <mxCell id="7d7tqYi4WP06SzkIWCzc-240" value="&amp;nbsp;错误标红，点击弹窗报错日志" style="rounded=0;whiteSpace=wrap;html=1;fillColor=#f8cecc;strokeColor=#b85450;" parent="7d7tqYi4WP06SzkIWCzc-58" vertex="1">
          <mxGeometry x="580" y="330" width="170" height="30" as="geometry" />
        </mxCell>
        <mxCell id="7d7tqYi4WP06SzkIWCzc-307" style="edgeStyle=orthogonalEdgeStyle;curved=1;rounded=0;orthogonalLoop=1;jettySize=auto;html=1;" parent="7d7tqYi4WP06SzkIWCzc-58" source="7d7tqYi4WP06SzkIWCzc-260" target="7d7tqYi4WP06SzkIWCzc-306" edge="1">
          <mxGeometry relative="1" as="geometry" />
        </mxCell>
        <mxCell id="7d7tqYi4WP06SzkIWCzc-260" value="接口3&amp;nbsp; 耗时%" style="rounded=0;whiteSpace=wrap;html=1;" parent="7d7tqYi4WP06SzkIWCzc-58" vertex="1">
          <mxGeometry x="880" y="330" width="140" height="30" as="geometry" />
        </mxCell>
        <mxCell id="7d7tqYi4WP06SzkIWCzc-261" value="" style="endArrow=none;html=1;rounded=0;curved=1;entryX=1;entryY=0.5;entryDx=0;entryDy=0;exitX=0;exitY=0.5;exitDx=0;exitDy=0;" parent="7d7tqYi4WP06SzkIWCzc-58" source="7d7tqYi4WP06SzkIWCzc-220" target="7d7tqYi4WP06SzkIWCzc-220" edge="1">
          <mxGeometry width="50" height="50" relative="1" as="geometry">
            <mxPoint x="440" y="400" as="sourcePoint" />
            <mxPoint x="1230" y="410" as="targetPoint" />
          </mxGeometry>
        </mxCell>
        <mxCell id="7d7tqYi4WP06SzkIWCzc-262" value="" style="endArrow=none;html=1;rounded=0;curved=1;entryX=1;entryY=0.5;entryDx=0;entryDy=0;exitX=0;exitY=0.5;exitDx=0;exitDy=0;" parent="7d7tqYi4WP06SzkIWCzc-58" edge="1">
          <mxGeometry width="50" height="50" relative="1" as="geometry">
            <mxPoint x="430" y="234.5" as="sourcePoint" />
            <mxPoint x="1270" y="234.5" as="targetPoint" />
          </mxGeometry>
        </mxCell>
        <mxCell id="7d7tqYi4WP06SzkIWCzc-263" value="&lt;h1&gt;服务1&lt;/h1&gt;" style="text;html=1;strokeColor=none;fillColor=none;spacing=5;spacingTop=-20;whiteSpace=wrap;overflow=hidden;rounded=0;" parent="7d7tqYi4WP06SzkIWCzc-58" vertex="1">
          <mxGeometry x="440" y="250" width="120" height="120" as="geometry" />
        </mxCell>
        <mxCell id="7d7tqYi4WP06SzkIWCzc-264" value="&lt;h1&gt;服务2&lt;/h1&gt;" style="text;html=1;strokeColor=none;fillColor=none;spacing=5;spacingTop=-20;whiteSpace=wrap;overflow=hidden;rounded=0;" parent="7d7tqYi4WP06SzkIWCzc-58" vertex="1">
          <mxGeometry x="440" y="390" width="110" height="70" as="geometry" />
        </mxCell>
        <mxCell id="7d7tqYi4WP06SzkIWCzc-304" style="edgeStyle=orthogonalEdgeStyle;curved=1;rounded=0;orthogonalLoop=1;jettySize=auto;html=1;" parent="7d7tqYi4WP06SzkIWCzc-58" source="7d7tqYi4WP06SzkIWCzc-271" target="7d7tqYi4WP06SzkIWCzc-301" edge="1">
          <mxGeometry relative="1" as="geometry" />
        </mxCell>
        <mxCell id="7d7tqYi4WP06SzkIWCzc-271" value="接口2&amp;nbsp; 耗时%" style="rounded=0;whiteSpace=wrap;html=1;" parent="7d7tqYi4WP06SzkIWCzc-58" vertex="1">
          <mxGeometry x="607" y="409" width="140" height="30" as="geometry" />
        </mxCell>
        <mxCell id="7d7tqYi4WP06SzkIWCzc-305" style="edgeStyle=orthogonalEdgeStyle;curved=1;rounded=0;orthogonalLoop=1;jettySize=auto;html=1;" parent="7d7tqYi4WP06SzkIWCzc-58" source="7d7tqYi4WP06SzkIWCzc-301" edge="1">
          <mxGeometry relative="1" as="geometry">
            <mxPoint x="677" y="530" as="targetPoint" />
          </mxGeometry>
        </mxCell>
        <mxCell id="7d7tqYi4WP06SzkIWCzc-301" value="接口2&amp;nbsp; 耗时%" style="rounded=0;whiteSpace=wrap;html=1;" parent="7d7tqYi4WP06SzkIWCzc-58" vertex="1">
          <mxGeometry x="607" y="460" width="140" height="30" as="geometry" />
        </mxCell>
        <mxCell id="7d7tqYi4WP06SzkIWCzc-309" style="edgeStyle=orthogonalEdgeStyle;curved=1;rounded=0;orthogonalLoop=1;jettySize=auto;html=1;" parent="7d7tqYi4WP06SzkIWCzc-58" source="7d7tqYi4WP06SzkIWCzc-306" target="7d7tqYi4WP06SzkIWCzc-308" edge="1">
          <mxGeometry relative="1" as="geometry" />
        </mxCell>
        <mxCell id="7d7tqYi4WP06SzkIWCzc-306" value="接口3&amp;nbsp; 耗时%" style="rounded=0;whiteSpace=wrap;html=1;" parent="7d7tqYi4WP06SzkIWCzc-58" vertex="1">
          <mxGeometry x="887" y="400" width="140" height="30" as="geometry" />
        </mxCell>
        <mxCell id="7d7tqYi4WP06SzkIWCzc-308" value="接口3&amp;nbsp; 耗时%" style="rounded=0;whiteSpace=wrap;html=1;" parent="7d7tqYi4WP06SzkIWCzc-58" vertex="1">
          <mxGeometry x="887" y="450" width="140" height="30" as="geometry" />
        </mxCell>
        <mxCell id="7d7tqYi4WP06SzkIWCzc-310" value="" style="endArrow=none;html=1;rounded=0;curved=1;entryX=1;entryY=0.5;entryDx=0;entryDy=0;exitX=0;exitY=0.5;exitDx=0;exitDy=0;" parent="7d7tqYi4WP06SzkIWCzc-58" edge="1">
          <mxGeometry width="50" height="50" relative="1" as="geometry">
            <mxPoint x="440" y="510" as="sourcePoint" />
            <mxPoint x="1280" y="510" as="targetPoint" />
          </mxGeometry>
        </mxCell>
        <mxCell id="7d7tqYi4WP06SzkIWCzc-312" value="&lt;h1&gt;中间件/数据库&lt;/h1&gt;" style="text;html=1;strokeColor=none;fillColor=none;spacing=5;spacingTop=-20;whiteSpace=wrap;overflow=hidden;rounded=0;" parent="7d7tqYi4WP06SzkIWCzc-58" vertex="1">
          <mxGeometry x="440" y="520" width="170" height="70" as="geometry" />
        </mxCell>
        <mxCell id="7d7tqYi4WP06SzkIWCzc-313" value="中间件执行耗时" style="rounded=0;whiteSpace=wrap;html=1;" parent="7d7tqYi4WP06SzkIWCzc-58" vertex="1">
          <mxGeometry x="610" y="530" width="140" height="30" as="geometry" />
        </mxCell>
        <mxCell id="7d7tqYi4WP06SzkIWCzc-130" value="点击弹窗：跳转服务详情页" style="rounded=0;whiteSpace=wrap;html=1;" parent="1" vertex="1">
          <mxGeometry x="240" y="30" width="300" height="50" as="geometry" />
        </mxCell>
        <mxCell id="7d7tqYi4WP06SzkIWCzc-131" style="edgeStyle=orthogonalEdgeStyle;rounded=0;orthogonalLoop=1;jettySize=auto;html=1;exitX=0.5;exitY=1;exitDx=0;exitDy=0;curved=1;" parent="1" source="7d7tqYi4WP06SzkIWCzc-130" target="f-9odYpLVWEYG3a2OQfo-14" edge="1">
          <mxGeometry relative="1" as="geometry" />
        </mxCell>
        <mxCell id="f-9odYpLVWEYG3a2OQfo-85" value="点击弹窗：按 接口延迟| 响应时间| 错误接口&amp;nbsp; 列表" style="rounded=0;whiteSpace=wrap;html=1;" parent="1" vertex="1">
          <mxGeometry x="570" y="40" width="300" height="40" as="geometry" />
        </mxCell>
        <mxCell id="f-9odYpLVWEYG3a2OQfo-87" style="edgeStyle=orthogonalEdgeStyle;rounded=0;orthogonalLoop=1;jettySize=auto;html=1;curved=1;" parent="1" source="f-9odYpLVWEYG3a2OQfo-85" target="f-9odYpLVWEYG3a2OQfo-21" edge="1">
          <mxGeometry relative="1" as="geometry" />
        </mxCell>
        <mxCell id="7d7tqYi4WP06SzkIWCzc-132" value="" style="swimlane;horizontal=0;startSize=130;" parent="1" vertex="1">
          <mxGeometry x="3270" y="100" width="1310" height="910" as="geometry" />
        </mxCell>
        <mxCell id="7d7tqYi4WP06SzkIWCzc-134" value="&lt;h1&gt;全链路监控&lt;/h1&gt;&lt;div&gt;&amp;nbsp; 应用概览&lt;/div&gt;" style="text;html=1;strokeColor=none;fillColor=none;spacing=5;spacingTop=-20;whiteSpace=wrap;overflow=hidden;rounded=0;" parent="7d7tqYi4WP06SzkIWCzc-132" vertex="1">
          <mxGeometry y="200" width="130" height="190" as="geometry" />
        </mxCell>
        <mxCell id="7d7tqYi4WP06SzkIWCzc-135" value="东盟" style="rounded=0;whiteSpace=wrap;html=1;" parent="7d7tqYi4WP06SzkIWCzc-132" vertex="1">
          <mxGeometry x="835" y="20" width="120" height="30" as="geometry" />
        </mxCell>
        <mxCell id="7d7tqYi4WP06SzkIWCzc-136" value="选择站点" style="text;html=1;strokeColor=none;fillColor=none;align=center;verticalAlign=middle;whiteSpace=wrap;rounded=0;" parent="7d7tqYi4WP06SzkIWCzc-132" vertex="1">
          <mxGeometry x="745" y="20" width="60" height="30" as="geometry" />
        </mxCell>
        <mxCell id="7d7tqYi4WP06SzkIWCzc-137" value="选择时间" style="text;html=1;strokeColor=none;fillColor=none;align=center;verticalAlign=middle;whiteSpace=wrap;rounded=0;" parent="7d7tqYi4WP06SzkIWCzc-132" vertex="1">
          <mxGeometry x="975" y="20" width="60" height="30" as="geometry" />
        </mxCell>
        <mxCell id="7d7tqYi4WP06SzkIWCzc-138" value="最近30分钟" style="rounded=0;whiteSpace=wrap;html=1;" parent="7d7tqYi4WP06SzkIWCzc-132" vertex="1">
          <mxGeometry x="1055" y="20" width="120" height="30" as="geometry" />
        </mxCell>
        <mxCell id="7d7tqYi4WP06SzkIWCzc-181" value="选择服务" style="rounded=0;whiteSpace=wrap;html=1;" parent="7d7tqYi4WP06SzkIWCzc-132" vertex="1">
          <mxGeometry x="160" y="30" width="170" height="30" as="geometry" />
        </mxCell>
        <mxCell id="7d7tqYi4WP06SzkIWCzc-182" value="服务响应时间" style="rounded=0;whiteSpace=wrap;html=1;" parent="7d7tqYi4WP06SzkIWCzc-132" vertex="1">
          <mxGeometry x="180" y="90" width="530" height="180" as="geometry" />
        </mxCell>
        <mxCell id="7d7tqYi4WP06SzkIWCzc-183" value="APDEX" style="rounded=0;whiteSpace=wrap;html=1;" parent="7d7tqYi4WP06SzkIWCzc-132" vertex="1">
          <mxGeometry x="720" y="90" width="410" height="180" as="geometry" />
        </mxCell>
        <mxCell id="7d7tqYi4WP06SzkIWCzc-184" value="错误率" style="rounded=0;whiteSpace=wrap;html=1;" parent="7d7tqYi4WP06SzkIWCzc-132" vertex="1">
          <mxGeometry x="148" y="290" width="352" height="180" as="geometry" />
        </mxCell>
        <mxCell id="7d7tqYi4WP06SzkIWCzc-185" value="耗时TOP5" style="rounded=0;whiteSpace=wrap;html=1;" parent="7d7tqYi4WP06SzkIWCzc-132" vertex="1">
          <mxGeometry x="510" y="290" width="380" height="180" as="geometry" />
        </mxCell>
        <mxCell id="7d7tqYi4WP06SzkIWCzc-186" value="吞吐率RPM" style="rounded=0;whiteSpace=wrap;html=1;" parent="7d7tqYi4WP06SzkIWCzc-132" vertex="1">
          <mxGeometry x="900" y="290" width="380" height="180" as="geometry" />
        </mxCell>
        <mxCell id="7d7tqYi4WP06SzkIWCzc-187" value="所有POD CPU" style="rounded=0;whiteSpace=wrap;html=1;" parent="7d7tqYi4WP06SzkIWCzc-132" vertex="1">
          <mxGeometry x="145" y="480" width="352" height="180" as="geometry" />
        </mxCell>
        <mxCell id="7d7tqYi4WP06SzkIWCzc-188" value="所有POD 内存" style="rounded=0;whiteSpace=wrap;html=1;" parent="7d7tqYi4WP06SzkIWCzc-132" vertex="1">
          <mxGeometry x="524" y="470" width="352" height="180" as="geometry" />
        </mxCell>
        <mxCell id="7d7tqYi4WP06SzkIWCzc-354" value="GC 次数" style="rounded=0;whiteSpace=wrap;html=1;" parent="7d7tqYi4WP06SzkIWCzc-132" vertex="1">
          <mxGeometry x="900" y="480" width="380" height="180" as="geometry" />
        </mxCell>
        <mxCell id="7d7tqYi4WP06SzkIWCzc-355" value="JVM" style="rounded=0;whiteSpace=wrap;html=1;" parent="7d7tqYi4WP06SzkIWCzc-132" vertex="1">
          <mxGeometry x="148" y="680" width="352" height="180" as="geometry" />
        </mxCell>
        <mxCell id="7d7tqYi4WP06SzkIWCzc-193" value="" style="swimlane;horizontal=0;startSize=130;" parent="1" vertex="1">
          <mxGeometry x="40" y="1390" width="1450" height="700" as="geometry" />
        </mxCell>
        <mxCell id="7d7tqYi4WP06SzkIWCzc-194" value="&lt;h1&gt;全链路监控&lt;/h1&gt;&lt;div&gt;&amp;nbsp; 应用拓扑&lt;/div&gt;" style="text;html=1;strokeColor=none;fillColor=none;spacing=5;spacingTop=-20;whiteSpace=wrap;overflow=hidden;rounded=0;" parent="7d7tqYi4WP06SzkIWCzc-193" vertex="1">
          <mxGeometry y="200" width="130" height="190" as="geometry" />
        </mxCell>
        <mxCell id="7d7tqYi4WP06SzkIWCzc-195" value="东盟" style="rounded=0;whiteSpace=wrap;html=1;" parent="7d7tqYi4WP06SzkIWCzc-193" vertex="1">
          <mxGeometry x="1080" y="20" width="120" height="30" as="geometry" />
        </mxCell>
        <mxCell id="7d7tqYi4WP06SzkIWCzc-196" value="选择站点" style="text;html=1;strokeColor=none;fillColor=none;align=center;verticalAlign=middle;whiteSpace=wrap;rounded=0;" parent="7d7tqYi4WP06SzkIWCzc-193" vertex="1">
          <mxGeometry x="990" y="20" width="60" height="30" as="geometry" />
        </mxCell>
        <mxCell id="7d7tqYi4WP06SzkIWCzc-197" value="选择时间" style="text;html=1;strokeColor=none;fillColor=none;align=center;verticalAlign=middle;whiteSpace=wrap;rounded=0;" parent="7d7tqYi4WP06SzkIWCzc-193" vertex="1">
          <mxGeometry x="1220" y="20" width="60" height="30" as="geometry" />
        </mxCell>
        <mxCell id="7d7tqYi4WP06SzkIWCzc-198" value="最近30分钟" style="rounded=0;whiteSpace=wrap;html=1;" parent="7d7tqYi4WP06SzkIWCzc-193" vertex="1">
          <mxGeometry x="1300" y="20" width="120" height="30" as="geometry" />
        </mxCell>
        <mxCell id="7d7tqYi4WP06SzkIWCzc-356" value="选择业务" style="rounded=0;whiteSpace=wrap;html=1;" parent="7d7tqYi4WP06SzkIWCzc-193" vertex="1">
          <mxGeometry x="180" y="20" width="170" height="30" as="geometry" />
        </mxCell>
        <mxCell id="7d7tqYi4WP06SzkIWCzc-374" style="edgeStyle=orthogonalEdgeStyle;curved=1;rounded=0;orthogonalLoop=1;jettySize=auto;html=1;" parent="7d7tqYi4WP06SzkIWCzc-193" source="7d7tqYi4WP06SzkIWCzc-359" target="7d7tqYi4WP06SzkIWCzc-360" edge="1">
          <mxGeometry relative="1" as="geometry" />
        </mxCell>
        <mxCell id="7d7tqYi4WP06SzkIWCzc-375" style="edgeStyle=orthogonalEdgeStyle;curved=1;rounded=0;orthogonalLoop=1;jettySize=auto;html=1;fillColor=#f8cecc;strokeColor=#b85450;" parent="7d7tqYi4WP06SzkIWCzc-193" source="7d7tqYi4WP06SzkIWCzc-359" target="7d7tqYi4WP06SzkIWCzc-361" edge="1">
          <mxGeometry relative="1" as="geometry" />
        </mxCell>
        <mxCell id="7d7tqYi4WP06SzkIWCzc-383" value="延迟，高延迟标红色" style="edgeLabel;html=1;align=center;verticalAlign=middle;resizable=0;points=[];" parent="7d7tqYi4WP06SzkIWCzc-375" vertex="1" connectable="0">
          <mxGeometry x="-0.2348" y="-31" relative="1" as="geometry">
            <mxPoint as="offset" />
          </mxGeometry>
        </mxCell>
        <mxCell id="7d7tqYi4WP06SzkIWCzc-401" style="edgeStyle=orthogonalEdgeStyle;curved=1;rounded=0;orthogonalLoop=1;jettySize=auto;html=1;dashed=1;" parent="7d7tqYi4WP06SzkIWCzc-193" source="7d7tqYi4WP06SzkIWCzc-359" target="7d7tqYi4WP06SzkIWCzc-400" edge="1">
          <mxGeometry relative="1" as="geometry" />
        </mxCell>
        <mxCell id="7d7tqYi4WP06SzkIWCzc-359" value="服务1" style="ellipse;whiteSpace=wrap;html=1;aspect=fixed;" parent="7d7tqYi4WP06SzkIWCzc-193" vertex="1">
          <mxGeometry x="630" y="110" width="80" height="80" as="geometry" />
        </mxCell>
        <mxCell id="7d7tqYi4WP06SzkIWCzc-376" style="edgeStyle=orthogonalEdgeStyle;curved=1;rounded=0;orthogonalLoop=1;jettySize=auto;html=1;" parent="7d7tqYi4WP06SzkIWCzc-193" source="7d7tqYi4WP06SzkIWCzc-360" target="7d7tqYi4WP06SzkIWCzc-369" edge="1">
          <mxGeometry relative="1" as="geometry" />
        </mxCell>
        <mxCell id="7d7tqYi4WP06SzkIWCzc-377" style="edgeStyle=orthogonalEdgeStyle;curved=1;rounded=0;orthogonalLoop=1;jettySize=auto;html=1;" parent="7d7tqYi4WP06SzkIWCzc-193" source="7d7tqYi4WP06SzkIWCzc-360" target="7d7tqYi4WP06SzkIWCzc-370" edge="1">
          <mxGeometry relative="1" as="geometry" />
        </mxCell>
        <mxCell id="7d7tqYi4WP06SzkIWCzc-378" style="edgeStyle=orthogonalEdgeStyle;curved=1;rounded=0;orthogonalLoop=1;jettySize=auto;html=1;" parent="7d7tqYi4WP06SzkIWCzc-193" source="7d7tqYi4WP06SzkIWCzc-360" target="7d7tqYi4WP06SzkIWCzc-371" edge="1">
          <mxGeometry relative="1" as="geometry" />
        </mxCell>
        <mxCell id="7d7tqYi4WP06SzkIWCzc-381" value="延迟" style="edgeLabel;html=1;align=center;verticalAlign=middle;resizable=0;points=[];" parent="7d7tqYi4WP06SzkIWCzc-378" vertex="1" connectable="0">
          <mxGeometry x="-0.1032" y="-26" relative="1" as="geometry">
            <mxPoint as="offset" />
          </mxGeometry>
        </mxCell>
        <mxCell id="7d7tqYi4WP06SzkIWCzc-360" value="服务1" style="ellipse;whiteSpace=wrap;html=1;aspect=fixed;" parent="7d7tqYi4WP06SzkIWCzc-193" vertex="1">
          <mxGeometry x="470" y="280" width="80" height="80" as="geometry" />
        </mxCell>
        <mxCell id="7d7tqYi4WP06SzkIWCzc-379" style="edgeStyle=orthogonalEdgeStyle;curved=1;rounded=0;orthogonalLoop=1;jettySize=auto;html=1;entryX=-0.037;entryY=0.375;entryDx=0;entryDy=0;entryPerimeter=0;" parent="7d7tqYi4WP06SzkIWCzc-193" source="7d7tqYi4WP06SzkIWCzc-361" target="7d7tqYi4WP06SzkIWCzc-372" edge="1">
          <mxGeometry relative="1" as="geometry" />
        </mxCell>
        <mxCell id="7d7tqYi4WP06SzkIWCzc-380" style="edgeStyle=orthogonalEdgeStyle;curved=1;rounded=0;orthogonalLoop=1;jettySize=auto;html=1;" parent="7d7tqYi4WP06SzkIWCzc-193" source="7d7tqYi4WP06SzkIWCzc-361" target="7d7tqYi4WP06SzkIWCzc-373" edge="1">
          <mxGeometry relative="1" as="geometry" />
        </mxCell>
        <mxCell id="7d7tqYi4WP06SzkIWCzc-382" value="延迟" style="edgeLabel;html=1;align=center;verticalAlign=middle;resizable=0;points=[];" parent="7d7tqYi4WP06SzkIWCzc-380" vertex="1" connectable="0">
          <mxGeometry x="-0.2905" y="-13" relative="1" as="geometry">
            <mxPoint as="offset" />
          </mxGeometry>
        </mxCell>
        <mxCell id="7d7tqYi4WP06SzkIWCzc-448" style="edgeStyle=orthogonalEdgeStyle;curved=1;rounded=0;orthogonalLoop=1;jettySize=auto;html=1;dashed=1;" parent="7d7tqYi4WP06SzkIWCzc-193" source="7d7tqYi4WP06SzkIWCzc-361" target="7d7tqYi4WP06SzkIWCzc-446" edge="1">
          <mxGeometry relative="1" as="geometry" />
        </mxCell>
        <mxCell id="7d7tqYi4WP06SzkIWCzc-361" value="服务1" style="ellipse;whiteSpace=wrap;html=1;aspect=fixed;" parent="7d7tqYi4WP06SzkIWCzc-193" vertex="1">
          <mxGeometry x="810" y="274" width="80" height="80" as="geometry" />
        </mxCell>
        <mxCell id="7d7tqYi4WP06SzkIWCzc-362" value="" style="endArrow=none;html=1;rounded=0;curved=1;exitX=0;exitY=0.5;exitDx=0;exitDy=0;" parent="7d7tqYi4WP06SzkIWCzc-193" edge="1">
          <mxGeometry width="50" height="50" relative="1" as="geometry">
            <mxPoint x="130" y="220" as="sourcePoint" />
            <mxPoint x="1450" y="220" as="targetPoint" />
          </mxGeometry>
        </mxCell>
        <mxCell id="7d7tqYi4WP06SzkIWCzc-363" value="&lt;h1&gt;网关层&lt;/h1&gt;" style="text;html=1;strokeColor=none;fillColor=none;spacing=5;spacingTop=-20;whiteSpace=wrap;overflow=hidden;rounded=0;" parent="7d7tqYi4WP06SzkIWCzc-193" vertex="1">
          <mxGeometry x="160" y="90" width="120" height="120" as="geometry" />
        </mxCell>
        <mxCell id="7d7tqYi4WP06SzkIWCzc-364" value="&lt;h1&gt;聚合层&lt;/h1&gt;" style="text;html=1;strokeColor=none;fillColor=none;spacing=5;spacingTop=-20;whiteSpace=wrap;overflow=hidden;rounded=0;" parent="7d7tqYi4WP06SzkIWCzc-193" vertex="1">
          <mxGeometry x="160" y="270" width="120" height="120" as="geometry" />
        </mxCell>
        <mxCell id="7d7tqYi4WP06SzkIWCzc-365" value="" style="endArrow=none;html=1;rounded=0;curved=1;" parent="7d7tqYi4WP06SzkIWCzc-193" edge="1">
          <mxGeometry width="50" height="50" relative="1" as="geometry">
            <mxPoint x="140" y="410" as="sourcePoint" />
            <mxPoint x="1110" y="410" as="targetPoint" />
          </mxGeometry>
        </mxCell>
        <mxCell id="7d7tqYi4WP06SzkIWCzc-366" value="&lt;h1&gt;中台层&lt;/h1&gt;" style="text;html=1;strokeColor=none;fillColor=none;spacing=5;spacingTop=-20;whiteSpace=wrap;overflow=hidden;rounded=0;" parent="7d7tqYi4WP06SzkIWCzc-193" vertex="1">
          <mxGeometry x="150" y="470" width="120" height="120" as="geometry" />
        </mxCell>
        <mxCell id="7d7tqYi4WP06SzkIWCzc-367" value="" style="endArrow=none;html=1;rounded=0;curved=1;exitX=0;exitY=0.5;exitDx=0;exitDy=0;" parent="7d7tqYi4WP06SzkIWCzc-193" edge="1">
          <mxGeometry width="50" height="50" relative="1" as="geometry">
            <mxPoint x="140" y="570" as="sourcePoint" />
            <mxPoint x="1460" y="570" as="targetPoint" />
          </mxGeometry>
        </mxCell>
        <mxCell id="7d7tqYi4WP06SzkIWCzc-368" value="&lt;h1&gt;基础设施&lt;/h1&gt;" style="text;html=1;strokeColor=none;fillColor=none;spacing=5;spacingTop=-20;whiteSpace=wrap;overflow=hidden;rounded=0;" parent="7d7tqYi4WP06SzkIWCzc-193" vertex="1">
          <mxGeometry x="150" y="590" width="120" height="120" as="geometry" />
        </mxCell>
        <mxCell id="7d7tqYi4WP06SzkIWCzc-395" style="edgeStyle=orthogonalEdgeStyle;curved=1;rounded=0;orthogonalLoop=1;jettySize=auto;html=1;" parent="7d7tqYi4WP06SzkIWCzc-193" source="7d7tqYi4WP06SzkIWCzc-369" target="7d7tqYi4WP06SzkIWCzc-384" edge="1">
          <mxGeometry relative="1" as="geometry" />
        </mxCell>
        <mxCell id="7d7tqYi4WP06SzkIWCzc-369" value="服务1" style="ellipse;whiteSpace=wrap;html=1;aspect=fixed;" parent="7d7tqYi4WP06SzkIWCzc-193" vertex="1">
          <mxGeometry x="410" y="440" width="80" height="80" as="geometry" />
        </mxCell>
        <mxCell id="7d7tqYi4WP06SzkIWCzc-396" style="edgeStyle=orthogonalEdgeStyle;curved=1;rounded=0;orthogonalLoop=1;jettySize=auto;html=1;" parent="7d7tqYi4WP06SzkIWCzc-193" source="7d7tqYi4WP06SzkIWCzc-370" target="7d7tqYi4WP06SzkIWCzc-385" edge="1">
          <mxGeometry relative="1" as="geometry" />
        </mxCell>
        <mxCell id="7d7tqYi4WP06SzkIWCzc-370" value="服务1" style="ellipse;whiteSpace=wrap;html=1;aspect=fixed;" parent="7d7tqYi4WP06SzkIWCzc-193" vertex="1">
          <mxGeometry x="550" y="440" width="80" height="80" as="geometry" />
        </mxCell>
        <mxCell id="7d7tqYi4WP06SzkIWCzc-397" style="edgeStyle=orthogonalEdgeStyle;curved=1;rounded=0;orthogonalLoop=1;jettySize=auto;html=1;" parent="7d7tqYi4WP06SzkIWCzc-193" source="7d7tqYi4WP06SzkIWCzc-371" target="7d7tqYi4WP06SzkIWCzc-386" edge="1">
          <mxGeometry relative="1" as="geometry" />
        </mxCell>
        <mxCell id="7d7tqYi4WP06SzkIWCzc-371" value="服务1" style="ellipse;whiteSpace=wrap;html=1;aspect=fixed;" parent="7d7tqYi4WP06SzkIWCzc-193" vertex="1">
          <mxGeometry x="700" y="440" width="80" height="80" as="geometry" />
        </mxCell>
        <mxCell id="7d7tqYi4WP06SzkIWCzc-398" style="edgeStyle=orthogonalEdgeStyle;curved=1;rounded=0;orthogonalLoop=1;jettySize=auto;html=1;" parent="7d7tqYi4WP06SzkIWCzc-193" source="7d7tqYi4WP06SzkIWCzc-372" target="7d7tqYi4WP06SzkIWCzc-387" edge="1">
          <mxGeometry relative="1" as="geometry" />
        </mxCell>
        <mxCell id="7d7tqYi4WP06SzkIWCzc-449" style="edgeStyle=orthogonalEdgeStyle;curved=1;rounded=0;orthogonalLoop=1;jettySize=auto;html=1;dashed=1;" parent="7d7tqYi4WP06SzkIWCzc-193" source="7d7tqYi4WP06SzkIWCzc-372" target="7d7tqYi4WP06SzkIWCzc-447" edge="1">
          <mxGeometry relative="1" as="geometry" />
        </mxCell>
        <mxCell id="7d7tqYi4WP06SzkIWCzc-372" value="服务1" style="ellipse;whiteSpace=wrap;html=1;aspect=fixed;" parent="7d7tqYi4WP06SzkIWCzc-193" vertex="1">
          <mxGeometry x="830" y="440" width="80" height="80" as="geometry" />
        </mxCell>
        <mxCell id="7d7tqYi4WP06SzkIWCzc-373" value="服务1" style="ellipse;whiteSpace=wrap;html=1;aspect=fixed;" parent="7d7tqYi4WP06SzkIWCzc-193" vertex="1">
          <mxGeometry x="1020" y="440" width="80" height="80" as="geometry" />
        </mxCell>
        <mxCell id="7d7tqYi4WP06SzkIWCzc-384" value="中间件" style="ellipse;whiteSpace=wrap;html=1;aspect=fixed;" parent="7d7tqYi4WP06SzkIWCzc-193" vertex="1">
          <mxGeometry x="360" y="590" width="80" height="80" as="geometry" />
        </mxCell>
        <mxCell id="7d7tqYi4WP06SzkIWCzc-385" value="数据库" style="ellipse;whiteSpace=wrap;html=1;aspect=fixed;" parent="7d7tqYi4WP06SzkIWCzc-193" vertex="1">
          <mxGeometry x="460" y="590" width="80" height="80" as="geometry" />
        </mxCell>
        <mxCell id="7d7tqYi4WP06SzkIWCzc-386" value="服务1" style="ellipse;whiteSpace=wrap;html=1;aspect=fixed;" parent="7d7tqYi4WP06SzkIWCzc-193" vertex="1">
          <mxGeometry x="570" y="590" width="80" height="80" as="geometry" />
        </mxCell>
        <mxCell id="7d7tqYi4WP06SzkIWCzc-387" value="服务1" style="ellipse;whiteSpace=wrap;html=1;aspect=fixed;" parent="7d7tqYi4WP06SzkIWCzc-193" vertex="1">
          <mxGeometry x="685" y="590" width="80" height="80" as="geometry" />
        </mxCell>
        <mxCell id="7d7tqYi4WP06SzkIWCzc-388" value="" style="shape=partialRectangle;whiteSpace=wrap;html=1;right=0;top=0;bottom=0;fillColor=none;routingCenterX=-0.5;" parent="7d7tqYi4WP06SzkIWCzc-193" vertex="1">
          <mxGeometry x="1110" y="224" width="100" height="346" as="geometry" />
        </mxCell>
        <mxCell id="7d7tqYi4WP06SzkIWCzc-400" value="点击跳转服务详情页" style="rounded=0;whiteSpace=wrap;html=1;" parent="7d7tqYi4WP06SzkIWCzc-193" vertex="1">
          <mxGeometry x="717" y="30" width="190" height="40" as="geometry" />
        </mxCell>
        <mxCell id="7d7tqYi4WP06SzkIWCzc-389" value="&lt;h1&gt;第三方&lt;/h1&gt;" style="text;html=1;strokeColor=none;fillColor=none;spacing=5;spacingTop=-20;whiteSpace=wrap;overflow=hidden;rounded=0;" parent="7d7tqYi4WP06SzkIWCzc-193" vertex="1">
          <mxGeometry x="1120" y="244" width="120" height="120" as="geometry" />
        </mxCell>
        <mxCell id="7d7tqYi4WP06SzkIWCzc-446" value="XXX.COM" style="ellipse;whiteSpace=wrap;html=1;aspect=fixed;" parent="7d7tqYi4WP06SzkIWCzc-193" vertex="1">
          <mxGeometry x="1160" y="310" width="80" height="80" as="geometry" />
        </mxCell>
        <mxCell id="7d7tqYi4WP06SzkIWCzc-447" value="XXX.COM" style="ellipse;whiteSpace=wrap;html=1;aspect=fixed;" parent="7d7tqYi4WP06SzkIWCzc-193" vertex="1">
          <mxGeometry x="1310" y="320" width="80" height="80" as="geometry" />
        </mxCell>
        <mxCell id="7d7tqYi4WP06SzkIWCzc-402" value="" style="swimlane;horizontal=0;startSize=130;" parent="1" vertex="1">
          <mxGeometry x="1610" y="730" width="1630" height="610" as="geometry" />
        </mxCell>
        <mxCell id="7d7tqYi4WP06SzkIWCzc-403" value="&lt;h1&gt;全链路监控&lt;/h1&gt;&lt;div&gt;&amp;nbsp; 数据库&lt;/div&gt;" style="text;html=1;strokeColor=none;fillColor=none;spacing=5;spacingTop=-20;whiteSpace=wrap;overflow=hidden;rounded=0;" parent="7d7tqYi4WP06SzkIWCzc-402" vertex="1">
          <mxGeometry y="200" width="130" height="190" as="geometry" />
        </mxCell>
        <mxCell id="7d7tqYi4WP06SzkIWCzc-404" value="东盟" style="rounded=0;whiteSpace=wrap;html=1;" parent="7d7tqYi4WP06SzkIWCzc-402" vertex="1">
          <mxGeometry x="1080" y="20" width="120" height="30" as="geometry" />
        </mxCell>
        <mxCell id="7d7tqYi4WP06SzkIWCzc-405" value="选择站点" style="text;html=1;strokeColor=none;fillColor=none;align=center;verticalAlign=middle;whiteSpace=wrap;rounded=0;" parent="7d7tqYi4WP06SzkIWCzc-402" vertex="1">
          <mxGeometry x="990" y="20" width="60" height="30" as="geometry" />
        </mxCell>
        <mxCell id="7d7tqYi4WP06SzkIWCzc-408" value="选择服务" style="rounded=0;whiteSpace=wrap;html=1;" parent="7d7tqYi4WP06SzkIWCzc-402" vertex="1">
          <mxGeometry x="150" y="10" width="170" height="30" as="geometry" />
        </mxCell>
        <mxCell id="7d7tqYi4WP06SzkIWCzc-409" value="排序： SQL&lt;span style=&quot;background-color: initial;&quot;&gt;&amp;nbsp;&amp;nbsp;&lt;/span&gt;&lt;span style=&quot;background-color: initial;&quot;&gt;响应时间&amp;nbsp; Apdex&amp;nbsp;&lt;/span&gt;&lt;span style=&quot;background-color: initial;&quot;&gt;吞吐率&lt;/span&gt;&lt;span style=&quot;background-color: initial;&quot;&gt;&lt;br&gt;&lt;/span&gt;" style="rounded=0;whiteSpace=wrap;html=1;" parent="7d7tqYi4WP06SzkIWCzc-402" vertex="1">
          <mxGeometry x="164" y="100" width="1206" height="40" as="geometry" />
        </mxCell>
        <mxCell id="7d7tqYi4WP06SzkIWCzc-410" value="" style="shape=ext;double=1;rounded=0;whiteSpace=wrap;html=1;" parent="7d7tqYi4WP06SzkIWCzc-402" vertex="1">
          <mxGeometry x="160" y="170" width="240" height="420" as="geometry" />
        </mxCell>
        <mxCell id="7d7tqYi4WP06SzkIWCzc-411" value="事务一览" style="text;html=1;strokeColor=none;fillColor=none;align=center;verticalAlign=middle;whiteSpace=wrap;rounded=0;" parent="7d7tqYi4WP06SzkIWCzc-402" vertex="1">
          <mxGeometry x="164" y="180" width="60" height="30" as="geometry" />
        </mxCell>
        <mxCell id="7d7tqYi4WP06SzkIWCzc-412" value="搜索框" style="rounded=0;whiteSpace=wrap;html=1;" parent="7d7tqYi4WP06SzkIWCzc-402" vertex="1">
          <mxGeometry x="230" y="180" width="140" height="30" as="geometry" />
        </mxCell>
        <mxCell id="7d7tqYi4WP06SzkIWCzc-413" value="接口名称：xxxx" style="text;html=1;strokeColor=none;fillColor=none;align=center;verticalAlign=middle;whiteSpace=wrap;rounded=0;" parent="7d7tqYi4WP06SzkIWCzc-402" vertex="1">
          <mxGeometry x="174" y="220" width="106" height="30" as="geometry" />
        </mxCell>
        <mxCell id="7d7tqYi4WP06SzkIWCzc-414" value="耗时: 100%" style="text;html=1;strokeColor=none;fillColor=none;align=center;verticalAlign=middle;whiteSpace=wrap;rounded=0;" parent="7d7tqYi4WP06SzkIWCzc-402" vertex="1">
          <mxGeometry x="280" y="220" width="90" height="30" as="geometry" />
        </mxCell>
        <mxCell id="7d7tqYi4WP06SzkIWCzc-442" value="耗时SQL TOP5&amp;nbsp;" style="rounded=0;whiteSpace=wrap;html=1;" parent="7d7tqYi4WP06SzkIWCzc-402" vertex="1">
          <mxGeometry x="510" y="170" width="1080" height="110" as="geometry" />
        </mxCell>
        <mxCell id="7d7tqYi4WP06SzkIWCzc-443" value="吞吐率 TOP5&amp;nbsp;" style="rounded=0;whiteSpace=wrap;html=1;" parent="7d7tqYi4WP06SzkIWCzc-402" vertex="1">
          <mxGeometry x="510" y="320" width="1080" height="110" as="geometry" />
        </mxCell>
        <mxCell id="7d7tqYi4WP06SzkIWCzc-450" value="点击跳转基础资源详情页" style="rounded=0;whiteSpace=wrap;html=1;" parent="1" vertex="1">
          <mxGeometry x="570" y="2140" width="190" height="40" as="geometry" />
        </mxCell>
        <mxCell id="7d7tqYi4WP06SzkIWCzc-451" style="edgeStyle=orthogonalEdgeStyle;curved=1;rounded=0;orthogonalLoop=1;jettySize=auto;html=1;dashed=1;" parent="1" source="7d7tqYi4WP06SzkIWCzc-385" target="7d7tqYi4WP06SzkIWCzc-450" edge="1">
          <mxGeometry relative="1" as="geometry" />
        </mxCell>
      </root>
    </mxGraphModel>
  </diagram>
</mxfile>
